<svg id="visual" viewBox="0 0 540 960" width="540" height="960" xmlns="http://www.w3.org/2000/svg" xmlns:xlink="http://www.w3.org/1999/xlink" version="1.1"><rect x="0" y="0" width="540" height="960" fill="none" ></rect><defs><linearGradient id="grad1_0" x1="0%" y1="0%" x2="100%" y2="100%"><stop offset="30%" stop-color="#001220" stop-opacity="1"></stop><stop offset="70%" stop-color="#001220" stop-opacity="1"></stop></linearGradient></defs><defs><linearGradient id="grad2_0" x1="0%" y1="0%" x2="100%" y2="100%"><stop offset="30%" stop-color="#001220" stop-opacity="1"></stop><stop offset="70%" stop-color="#001220" stop-opacity="1"></stop></linearGradient></defs><g transform="translate(540, 0)"><path d="M0 297C-31.6 293.8 -63.1 290.5 -91.2 280.6C-119.2 270.6 -143.6 254 -172.2 237C-200.8 220.1 -233.5 202.9 -240.3 174.6C-247 146.2 -227.9 106.7 -233 75.7C-238.1 44.8 -267.6 22.4 -297 0L0 0Z" fill="#22c55e"></path></g><g transform="translate(0, 960)"><path d="M0 -297C21.5 -254.3 43.1 -211.7 63.3 -195C83.6 -178.2 102.6 -187.4 139.9 -192.5C177.1 -197.7 232.6 -198.7 240.3 -174.6C247.9 -150.5 207.8 -101.3 209.2 -68C210.7 -34.7 253.9 -17.4 297 0L0 0Z" fill="#22c55e"></path></g></svg>