<svg xmlns="http://www.w3.org/2000/svg" version="1.1" xmlns:xlink="http://www.w3.org/1999/xlink" xmlns:svgjs="http://svgjs.dev/svgjs" width="1000" height="1125" viewBox="0 0 1000 1125"><g transform="matrix(1,0,0,1,1.7053025658242404e-13,0)"><svg viewBox="0 0 320 360" data-background-color="#ffffff" preserveAspectRatio="xMidYMid meet" height="1125" width="1000" xmlns="http://www.w3.org/2000/svg" xmlns:xlink="http://www.w3.org/1999/xlink"><g id="tight-bounds" transform="matrix(1,0,0,1,0,0)"><svg viewBox="0 0 320 360" height="360" width="320"><g><svg></svg></g><g><svg viewBox="0 0 320 360" height="360" width="320"><g><path xmlns="http://www.w3.org/2000/svg" d="M20.961 227.22l3.726 4.658-1.863-6.056c-0.466-2.795-3.726 0.466-1.863 1.398M25.153 224.425c1.397 2.329 2.795 4.658 2.795 6.987 0 3.261 2.795 4.658 5.123 5.589-3.261-3.726-5.124-13.974-7.918-12.576M204.017 26.929c7.918 0 15.371-0.932 23.756 0.931 20.495 5.124 37.729 15.371 49.374 29.811l32.606 52.169c1.397 13.042 4.192 27.482 3.726 43.319 3.261 0 2.795-4.658 6.521-5.59-3.726 9.316-5.59 20.961-6.521 34.469-2.329-7.453 0-18.632 0.466-24.687-3.261 5.124-5.124 1.397-5.124-0.932 0.466-3.726-1.397-3.261-2.795-4.658-5.124-4.658-8.384-9.782-12.11-17.7 2.329-6.055 2.795-14.905-4.658-19.563-2.329-1.397-5.124-3.726-6.521-7.453-1.863-5.124-5.124-11.179-4.193-19.097 0.466-2.329-6.987 5.124-11.179 1.863-18.166-12.576-36.332-27.016-58.224-39.127-11.645 0-20.029-4.192-24.221-9.316-3.726-4.658-0.932-10.713 4.658-11.179 3.261 0 6.987-0.932 9.782 0.932 0.466-1.863 2.329-4.192 4.657-4.192M157.904 16.215l0.932 0.466c4.658 0.932 6.987 7.453 12.11 5.124 0 3.261 0.466 6.521-0.466 8.85-1.397 3.726-5.59 3.726-8.85 3.726-31.208-1.863-49.374 11.179-68.471 22.358-5.124 3.261-10.713 5.59-14.906 9.782-20.029 18.632-41.921 35.866-47.045 70.335l-4.192 38.195c-0.466 4.192-5.124 8.384-4.192 13.508l3.26 22.824c-3.261-3.261-5.124 0.932-4.192 2.795 0.466 1.397 2.329 6.055 5.124 1.863 3.726 6.987 7.453 20.495 12.576 26.55 15.837 18.632 36.332 35.4 53.101 52.169 4.192-0.932 7.453-0.932 8.384-3.727 1.397 2.795-1.397 5.59-3.726 6.056 7.453 4.658 15.837 8.85 27.016 9.781 14.44 0.932 27.948 3.261 40.524 6.522 6.521-1.863 13.042-2.795 20.029-3.261 2.329 0 3.726-3.726 6.521-4.658l0.466-4.658c2.795 4.192 2.329-1.397 0.466-4.192 3.261 2.795 4.192 5.124 5.589 6.987 0-1.397 3.726-6.521 3.727-0.466l0.931-6.055c1.397-0.932 1.863 5.124 3.261 0.931 1.397-4.192 4.192-0.932 6.987-2.329-0.932 1.863-0.466 5.59 2.794 3.261l3.727-3.261c2.329 5.59 6.055 3.261 7.918 2.329 20.495-13.042 40.99-28.413 60.553-43.784l-0.466 6.055 2.329-7.453c2.329 2.329 4.192 0.466 5.124-0.931 2.795-4.658 6.521-9.316 12.577-13.508-7.453 20.029-16.303 35.866-27.482 48.908l-4.658 5.59c0 3.261-0.932 7.453-4.658 7.918-1.863 0.466-5.59-0.932-8.384 1.863-1.397 1.863 3.261 5.59-0.466 2.795-3.261-2.329-6.521 0-10.248 0.932-2.795 0.932 1.863 3.726 2.795 5.589 0.932 1.863 1.863 3.726 1.398 6.056l-5.124-5.59c-6.055 3.261-9.782 9.316-14.906 13.974-2.329 1.863-1.397 5.124-1.397 7.918-3.261 0-6.987-0.932-8.85 0.932-1.397 1.863-0.932 4.658-0.932 7.453-4.658-0.466-5.124-7.453-9.315-6.056-4.192 0.932-8.85 1.397-12.577 3.727 2.795 5.59-4.658 2.329-3.726 3.26-6.987-4.192-13.042-7.453-20.495-4.658-15.837-5.124-35.4-2.795-49.84-0.931 0-2.329 0.466-4.658-0.466-5.124-0.932 2.329-3.726 1.397-3.26 1.397-8.85-6.055-17.7-9.782-27.016-14.905-8.384 0.932-16.303-3.261-18.632-5.59-6.521-6.055-13.974-2.795-20.029-4.192-13.042-3.261-17.7-16.769-19.098-26.084-0.932-4.658-4.658-6.521-6.055-6.056-6.055-19.563-15.371-37.263-22.824-55.429-1.863-4.658-1.397-9.316-1.397-14.44 2.329 0.932 4.658 0.466 4.192-2.794-2.329-15.371-7.918-27.016-13.974-38.195 3.261-15.837 3.726-34.469 11.179-48.443 6.521-12.576 18.632-19.098 27.016-29.811 2.795-3.726 2.795-8.85 5.59-12.11 9.316-9.316 18.632-19.098 28.879-27.482 4.658-3.726 10.247 0 17.234-1.397 2.329-8.384 11.645-15.837 20.495-13.508 3.726 0.932 11.179-8.85 13.508-9.782 3.726-1.397 1.863 3.726 1.863 6.987 8.85-6.987 20.961-10.713 32.14-14.906" fill="#10c380" fill-rule="nonzero" stroke="none" stroke-width="1" stroke-linecap="butt" stroke-linejoin="miter" stroke-miterlimit="10" stroke-dasharray="" stroke-dashoffset="0" font-family="none" font-weight="none" font-size="none" text-anchor="none" style="mix-blend-mode: normal" data-fill-palette-color="tertiary"></path></g><g transform="matrix(1,0,0,1,70,90)"><svg viewBox="0 0 180 180" height="180" width="180"><g><svg viewBox="0 0 180 180" height="180" width="180"><g><svg viewBox="0 0 180 180" height="180" width="180"><g id="textblocktransform"><svg viewBox="0 0 180 180" height="180" width="180" id="textblock"><g><svg viewBox="0 0 180 180" height="180" width="180"><g transform="matrix(1,0,0,1,47.57359312880715,51.989780402165316)"><svg viewBox="0 0 84.8528137423857 76.02043919566937" height="76.02043919566937" width="84.8528137423857"><g><svg xmlns="http://www.w3.org/2000/svg" xmlns:xlink="http://www.w3.org/1999/xlink" version="1.1" x="0" y="0" viewBox="0.9850000143051147 6.086999893188477 98.02999877929688 87.82600402832031" enable-background="new 0 0 100 100" xml:space="preserve" height="76.02043919566937" width="84.8528137423857" class="icon-o-0" data-fill-palette-color="accent" id="o-0"><path d="M50 6.087C22.93 6.087 0.985 25.748 0.985 50 0.985 74.253 22.93 93.913 50 93.913c27.07 0 49.015-19.66 49.015-43.913C99.015 25.748 77.07 6.087 50 6.087zM74.833 69.08c-32.125 19.166-60.851-0.667-66.379-6.454 14.492 11.331 37.288 14.851 56.379 6.787C76.146 64.037 82.172 56.755 85 47.079c2.829-10.751-0.536-20.965-11.143-27.954-9.899-6.451-22.628-8.601-35.355-5.376-9.899 3.226-17.678 9.139-20.506 17.74-3.535 9.139 2.829 18.277 13.435 23.115 10.606 3.763 25.456 2.15 31.113-6.45 3.535-5.914 2.121-13.44-5.657-17.203-3.535-1.613-8.303-1.955-10.86 0.174-3.521 2.932 1.89 0.361 5.874 2.206 2.517 1.165 5.6 3.165 4.986 8.372-0.772 6.559-11.313 9.677-18.385 7.526-7.778-2.688-11.314-8.601-10.606-14.515 1.414-6.451 7.778-11.289 15.557-12.902 13.435-2.688 25.455 4.301 29.698 13.978 3.535 9.138-2.121 17.739-12.021 23.115-8.484 4.301-18.385 5.376-27.577 2.688-13.435-3.763-22.627-12.901-23.334-24.19C9.511 22.888 22.238 12.137 39.916 8.374c19.799-3.225 39.598 4.301 48.083 18.277C95.777 41.166 91.609 59.071 74.833 69.08z" fill="#17bc55" data-fill-palette-color="accent"></path></svg></g></svg></g><path d="M15.767 130.946c0.159 0.175 0.264 0.331 0.316 0.468v0c0.08 0.212 0.06 0.404-0.06 0.577-0.122 0.167-0.311 0.299-0.566 0.396v0c-0.405 0.153-0.787 0.187-1.146 0.102-0.362-0.091-0.744-0.331-1.148-0.719v0c-0.681-0.654-1.374-1.574-2.079-2.76-0.705-1.186-1.289-2.393-1.753-3.62v0c-0.645-1.707-0.991-3.206-1.038-4.499-0.049-1.298 0.156-2.355 0.617-3.17 0.467-0.817 1.127-1.387 1.981-1.71v0c1.159-0.438 2.289-0.434 3.389 0.011 1.105 0.437 2.113 1.316 3.026 2.637v0c-0.071-0.885 0.106-1.649 0.532-2.294 0.419-0.643 0.987-1.099 1.703-1.37v0c0.972-0.367 1.95-0.388 2.935-0.063 0.981 0.334 1.87 0.945 2.668 1.832 0.798 0.887 1.433 1.954 1.904 3.2v0c0.633 1.676 0.748 3.071 0.343 4.185-0.407 1.108-1.184 1.879-2.33 2.312v0c-0.804 0.304-1.506 0.405-2.106 0.304-0.603-0.107-1.007-0.431-1.212-0.973v0c-0.144-0.38-0.171-0.708-0.083-0.983 0.086-0.282 0.3-0.487 0.642-0.616v0c0.224-0.085 0.486-0.145 0.787-0.18v0c0.468-0.099 0.786-0.18 0.954-0.244v0c0.486-0.184 0.809-0.516 0.969-0.996 0.166-0.483 0.089-1.148-0.23-1.995v0c-0.436-1.152-1.026-1.979-1.771-2.481-0.747-0.508-1.532-0.606-2.355-0.296v0c-0.635 0.24-1.064 0.698-1.286 1.373-0.213 0.679-0.116 1.614 0.292 2.805v0c0.101 0.304 0.111 0.538 0.031 0.704-0.071 0.169-0.25 0.308-0.537 0.416v0c-0.891 0.337-1.497 0.099-1.817-0.711v0c-0.455-1.11-0.962-1.979-1.52-2.608-0.564-0.627-1.127-1.023-1.688-1.189-0.569-0.169-1.103-0.16-1.602 0.029v0c-0.841 0.318-1.325 0.949-1.452 1.895-0.127 0.945 0.132 2.271 0.778 3.978v0c0.424 1.121 1.002 2.255 1.734 3.402 0.735 1.153 1.461 2.103 2.178 2.851zM20.983 146.213c-0.349-0.402-0.51-0.77-0.481-1.103 0.033-0.328 0.3-0.711 0.803-1.147v0c0.337-0.293 0.773-0.614 1.307-0.963 0.54-0.354 1.364-0.872 2.475-1.553v0c0.153-0.088 0.762-0.463 1.828-1.125 1.061-0.657 2.157-1.37 3.288-2.14v0c0.971-0.649 1.673-1.161 2.105-1.537v0c0.493-0.428 0.582-0.823 0.268-1.185v0c-0.236-0.272-0.674-0.487-1.314-0.645-0.65-0.159-1.494-0.197-2.534-0.115v0c-0.337 0.028-0.587-0.051-0.748-0.237v0c-0.135-0.156-0.178-0.352-0.128-0.59 0.05-0.247 0.166-0.449 0.347-0.605v0c0.186-0.162 0.393-0.284 0.62-0.367 0.228-0.083 0.536-0.139 0.926-0.169v0c1.197-0.104 2.278-0.002 3.243 0.307 0.965 0.309 1.762 0.825 2.39 1.549v0c0.52 0.598 0.724 1.21 0.614 1.835-0.11 0.615-0.519 1.231-1.228 1.847v0c-0.634 0.55-1.626 1.261-2.976 2.134v0c2.086-0.858 3.911-1.23 5.475-1.115 1.564 0.115 2.839 0.741 3.826 1.877v0c0.777 0.895 1.108 1.789 0.993 2.683-0.115 0.894-0.597 1.709-1.447 2.447v0c-0.478 0.415-1.122 0.851-1.933 1.308v0l-5.556 3.064c-0.635 0.366-1.148 0.719-1.54 1.06v0c-0.458 0.397-0.71 0.802-0.758 1.214-0.048 0.412 0.094 0.809 0.425 1.192v0c0.314 0.362 0.741 0.609 1.279 0.741 0.543 0.137 1.296 0.198 2.261 0.181v0c0.264 0 0.466 0.08 0.606 0.241v0c0.127 0.146 0.159 0.316 0.098 0.51-0.061 0.194-0.207 0.391-0.438 0.592v0c-0.422 0.367-0.849 0.556-1.279 0.568v0c-1.182 0.03-2.174-0.097-2.976-0.38-0.797-0.278-1.462-0.724-1.995-1.337v0c-0.803-0.925-1.156-1.89-1.056-2.893 0.094-0.999 0.606-1.902 1.537-2.71v0c0.357-0.31 0.773-0.623 1.248-0.939 0.48-0.311 1.11-0.677 1.891-1.098v0l3.558-1.952c0.117-0.058 0.326-0.168 0.625-0.331 0.295-0.168 0.571-0.333 0.828-0.494 0.247-0.162 0.482-0.339 0.703-0.531v0c0.347-0.301 0.538-0.639 0.574-1.015 0.041-0.38-0.094-0.748-0.403-1.104v0c-0.568-0.654-1.487-1.007-2.758-1.059-1.267-0.047-2.919 0.325-4.958 1.116-2.039 0.8-4.406 2.092-7.1 3.876v0c-0.624 0.409-1.109 0.632-1.456 0.669-0.348 0.046-0.707-0.144-1.079-0.572zM48.586 170.145c-1.495-0.847-2.64-1.86-3.434-3.037-0.798-1.172-1.207-2.429-1.226-3.772-0.023-1.337 0.343-2.672 1.099-4.005v0c1.048-1.848 2.326-3.294 3.835-4.337 1.512-1.034 3.088-1.606 4.729-1.717 1.637-0.106 3.185 0.255 4.645 1.082v0c1.356 0.768 2.19 1.701 2.503 2.797 0.304 1.098 0.132 2.218-0.515 3.359v0c-0.437 0.771-0.92 1.312-1.449 1.625-0.535 0.309-1.055 0.321-1.558 0.035v0c-0.353-0.2-0.583-0.437-0.688-0.711-0.111-0.277-0.076-0.575 0.105-0.894v0c0.062-0.11 0.205-0.301 0.428-0.573v0c0.289-0.334 0.497-0.614 0.625-0.839v0c0.65-1.147 0.364-2.067-0.859-2.76v0c-0.829-0.47-1.774-0.646-2.835-0.528-1.064 0.109-2.126 0.556-3.184 1.342-1.058 0.786-1.997 1.903-2.818 3.351v0c-0.854 1.506-1.094 2.909-0.72 4.208 0.38 1.302 1.392 2.42 3.038 3.352v0c0.817 0.463 1.7 0.83 2.649 1.1 0.958 0.268 2.066 0.474 3.323 0.62v0c0.234 0.033 0.415 0.086 0.542 0.158v0c0.197 0.112 0.305 0.272 0.324 0.482 0.013 0.206-0.048 0.428-0.183 0.666v0c-0.437 0.771-1.173 1.104-2.208 0.999v0c-1.112-0.118-2.2-0.359-3.264-0.724-1.067-0.36-2.035-0.786-2.904-1.279zM86.804 175.745c0.184 0.029 0.315 0.137 0.393 0.326 0.078 0.188 0.093 0.433 0.046 0.735v0c-0.087 0.553-0.292 0.972-0.613 1.258v0c-1.688 1.507-3.331 2.134-4.93 1.882v0c-1.381-0.218-2.402-0.929-3.061-2.132-0.659-1.203-0.832-2.801-0.517-4.795v0c0.077-0.487 0.177-0.97 0.3-1.449v0c-0.974 0.021-2.024-0.013-3.149-0.103v0c-0.753-0.058-1.265-0.102-1.537-0.132v0c-0.512 1.409-1.195 3.128-2.049 5.158v0c-0.492 1.197-1.16 1.728-2.001 1.595v0c-0.914-0.144-1.306-0.631-1.176-1.459v0c0.029-0.184 0.106-0.435 0.231-0.753v0c0.795-1.877 1.442-3.47 1.938-4.781v0l-1.032-0.123c-0.474-0.075-0.803-0.211-0.988-0.408-0.191-0.199-0.258-0.482-0.199-0.851v0c0.075-0.474 0.264-0.798 0.568-0.972 0.312-0.18 0.782-0.234 1.411-0.162v0l1.143 0.13c0.693-1.954 1.122-3.457 1.288-4.509v0c0.106-0.671 0.076-1.144-0.089-1.42-0.159-0.275-0.403-0.438-0.732-0.49v0c-1-0.158-2.26 0.499-3.78 1.972v0c-0.223 0.214-0.449 0.303-0.679 0.267v0c-0.197-0.031-0.353-0.154-0.468-0.367-0.116-0.207-0.151-0.452-0.107-0.735v0c0.07-0.441 0.325-0.883 0.766-1.325v0c0.763-0.776 1.666-1.369 2.708-1.777 1.05-0.414 2.068-0.543 3.055-0.388v0c0.928 0.146 1.595 0.576 2.001 1.287 0.406 0.718 0.503 1.748 0.291 3.09v0c-0.187 1.184-0.612 2.762-1.274 4.735v0l2.109 0.221c0.907 0.103 1.691 0.156 2.352 0.159v0c0.505-1.532 1.128-2.94 1.871-4.225 0.743-1.292 1.577-2.303 2.501-3.033 0.918-0.732 1.86-1.021 2.828-0.868v0c0.717 0.113 1.238 0.485 1.563 1.116 0.326 0.625 0.417 1.394 0.272 2.309v0c-0.559 3.539-2.753 5.711-6.581 6.515v0c-0.136 0.565-0.253 1.153-0.35 1.765v0c-0.237 1.5-0.217 2.592 0.059 3.276 0.269 0.69 0.738 1.088 1.41 1.194v0c0.585 0.092 1.146 0.023 1.682-0.21 0.536-0.232 1.168-0.672 1.897-1.318v0c0.202-0.17 0.412-0.238 0.629-0.204zM85.83 163.152c-0.316-0.05-0.693 0.184-1.133 0.701-0.438 0.511-0.893 1.234-1.364 2.171-0.472 0.937-0.892 1.976-1.261 3.118v0c1.213-0.294 2.161-0.832 2.844-1.614 0.678-0.79 1.124-1.869 1.34-3.237v0c0.052-0.329 0.037-0.594-0.046-0.796-0.083-0.202-0.21-0.316-0.38-0.343zM103.208 179.237c-0.98 0.193-1.91 0.125-2.789-0.204-0.886-0.328-1.644-0.905-2.276-1.731-0.631-0.826-1.07-1.863-1.315-3.111v0c-0.424-2.15-0.356-4.233 0.204-6.251 0.559-2.018 1.628-3.762 3.204-5.233 1.585-1.466 3.638-2.448 6.16-2.945v0c0.653-0.129 1.362-0.218 2.126-0.266 0.764-0.049 1.47-0.032 2.118 0.051v0c0.42 0.033 0.675 0.274 0.764 0.725v0c0.073 0.372 0.002 0.75-0.215 1.132-0.21 0.381-0.498 0.607-0.864 0.679v0c-0.118 0.023-0.204 0.03-0.26 0.021v0c-0.772-0.024-1.426-0.021-1.963 0.01-0.545 0.026-1.108 0.096-1.69 0.211v0c-1.797 0.354-3.24 1.09-4.33 2.207-1.096 1.119-1.813 2.458-2.151 4.018-0.339 1.553-0.345 3.16-0.017 4.82v0c0.237 1.202 0.656 2.087 1.256 2.654 0.607 0.566 1.293 0.774 2.057 0.623v0c0.863-0.17 1.55-0.675 2.064-1.517 0.514-0.834 0.886-2.099 1.115-3.793 0.223-1.693 0.327-3.954 0.313-6.782v0c0.006-0.415 0.123-0.717 0.352-0.904 0.227-0.194 0.555-0.333 0.986-0.419v0c1.006-0.198 1.574 0.029 1.703 0.683v0c0.022 0.111 0.027 0.256 0.014 0.435v0c-0.094 1.451-0.131 3.04-0.109 4.766 0.021 1.727 0.117 3.021 0.286 3.884v0c0.151 0.764 0.374 1.297 0.672 1.599 0.298 0.308 0.679 0.416 1.143 0.324v0c0.457-0.09 0.862-0.329 1.213-0.717 0.351-0.388 0.764-1.013 1.239-1.874v0c0.131-0.23 0.305-0.365 0.521-0.407v0c0.183-0.036 0.343 0.021 0.481 0.169 0.145 0.148 0.246 0.372 0.306 0.673v0c0.108 0.549 0.057 1.014-0.153 1.395v0c-0.528 0.973-1.081 1.747-1.66 2.322-0.58 0.569-1.354 0.949-2.321 1.14v0c-0.987 0.194-1.844 0.065-2.571-0.389-0.721-0.455-1.263-1.19-1.626-2.205v0c-0.619 2.403-1.948 3.805-3.987 4.207zM130.097 170.01c-0.45 0.285-0.838 0.389-1.162 0.311-0.32-0.081-0.658-0.403-1.014-0.966v0c-0.239-0.377-0.491-0.856-0.757-1.437-0.269-0.586-0.657-1.48-1.165-2.679v0c-0.065-0.164-0.344-0.823-0.838-1.976-0.491-1.148-1.032-2.338-1.624-3.571v0c-0.496-1.057-0.898-1.828-1.205-2.312v0c-0.349-0.551-0.726-0.699-1.131-0.442v0c-0.304 0.192-0.582 0.593-0.835 1.203-0.255 0.619-0.419 1.448-0.493 2.488v0c-0.023 0.338-0.138 0.572-0.346 0.704v0c-0.174 0.111-0.375 0.123-0.602 0.039-0.236-0.087-0.419-0.231-0.547-0.434v0c-0.132-0.208-0.222-0.431-0.27-0.669-0.048-0.238-0.057-0.551-0.028-0.94v0c0.076-1.199 0.339-2.253 0.788-3.16 0.45-0.908 1.08-1.618 1.89-2.132v0c0.669-0.424 1.305-0.535 1.906-0.332 0.592 0.2 1.139 0.697 1.642 1.49v0c0.449 0.709 1.004 1.796 1.665 3.262v0c-0.537-2.191-0.631-4.051-0.283-5.58 0.348-1.529 1.157-2.696 2.429-3.502v0c1.001-0.634 1.935-0.828 2.801-0.581 0.866 0.247 1.601 0.846 2.203 1.798v0c0.339 0.534 0.673 1.237 1.004 2.107v0l2.198 5.952c0.267 0.682 0.539 1.243 0.817 1.681v0c0.324 0.512 0.687 0.822 1.087 0.932 0.4 0.109 0.814 0.028 1.242-0.243v0c0.405-0.257 0.713-0.641 0.925-1.153 0.217-0.516 0.389-1.252 0.517-2.208v0c0.039-0.261 0.149-0.449 0.329-0.563v0c0.163-0.103 0.336-0.11 0.518-0.022 0.183 0.089 0.356 0.263 0.52 0.522v0c0.299 0.473 0.423 0.923 0.371 1.35v0c-0.147 1.173-0.421 2.135-0.821 2.886-0.394 0.746-0.935 1.337-1.621 1.772v0c-1.035 0.656-2.041 0.86-3.019 0.611-0.974-0.243-1.79-0.884-2.449-1.925v0c-0.253-0.399-0.5-0.858-0.741-1.375-0.235-0.521-0.503-1.199-0.804-2.033v0l-1.397-3.81c-0.04-0.125-0.118-0.347-0.233-0.668-0.122-0.317-0.243-0.614-0.365-0.893-0.123-0.269-0.263-0.527-0.42-0.774v0c-0.246-0.388-0.552-0.628-0.917-0.72-0.369-0.097-0.753-0.019-1.153 0.234v0c-0.731 0.463-1.218 1.319-1.459 2.568-0.236 1.245-0.115 2.935 0.361 5.069 0.486 2.136 1.409 4.669 2.77 7.6v0c0.311 0.678 0.459 1.191 0.443 1.54-0.006 0.351-0.249 0.678-0.727 0.981zM148.493 128.487c0.339-0.303 0.662-0.48 0.968-0.531 0.308-0.042 0.576 0.024 0.804 0.196v0c0.382 0.29 0.58 0.608 0.594 0.953 0.009 0.341-0.178 0.73-0.561 1.168v0c-0.87 0.97-1.538 1.733-2.004 2.291-0.47 0.563-1.071 1.311-1.804 2.242v0c1.799 2.036 3.63 4.046 5.493 6.03v0c0.692 0.718 1.5 1.537 2.424 2.457 0.92 0.925 1.682 1.65 2.286 2.176v0c0.314 0.28 0.464 0.612 0.45 0.993-0.013 0.392-0.155 0.765-0.425 1.121v0c-0.29 0.382-0.606 0.606-0.949 0.671-0.343 0.066-0.663-0.014-0.959-0.24v0c-0.276-0.209-0.702-0.6-1.28-1.172-0.568-0.574-1.16-1.182-1.775-1.825v0c-0.609-0.663-1.144-1.224-1.606-1.685v0c-0.778-0.792-1.539-1.596-2.282-2.411-0.74-0.821-1.433-1.603-2.082-2.347v0c-0.147-0.17-0.315-0.361-0.506-0.572-0.186-0.217-0.395-0.459-0.627-0.728v0c-0.826 1.154-1.409 2.108-1.747 2.863-0.338 0.764-0.474 1.384-0.41 1.859 0.065 0.476 0.31 0.875 0.734 1.198v0c0.392 0.298 0.855 0.465 1.388 0.502v0c0.112 0.018 0.213 0.061 0.303 0.129v0c0.223 0.169 0.328 0.454 0.316 0.856-0.002 0.4-0.108 0.737-0.318 1.013v0c-0.149 0.196-0.328 0.316-0.536 0.358v0c-0.373 0.084-0.8 0.062-1.278-0.068-0.473-0.125-0.941-0.363-1.402-0.714v0c-0.976-0.741-1.519-1.656-1.629-2.743-0.106-1.093 0.198-2.396 0.913-3.911 0.715-1.514 1.853-3.297 3.411-5.349v0c0.959-1.262 1.748-2.252 2.368-2.968 0.619-0.726 1.194-1.33 1.728-1.812zM169.1 114.119c-0.009-0.236 0.01-0.423 0.058-0.562v0c0.075-0.214 0.213-0.349 0.417-0.405 0.201-0.05 0.43-0.03 0.688 0.061v0c0.409 0.143 0.724 0.362 0.945 0.658 0.219 0.302 0.358 0.732 0.417 1.288v0c0.103 0.939 0.043 2.089-0.178 3.451-0.222 1.362-0.548 2.662-0.981 3.9v0c-0.602 1.723-1.299 3.095-2.093 4.116-0.796 1.027-1.632 1.705-2.509 2.033-0.883 0.327-1.755 0.34-2.616 0.039v0c-1.169-0.408-2.033-1.137-2.592-2.185-0.567-1.044-0.775-2.366-0.626-3.964v0c-0.514 0.724-1.141 1.196-1.881 1.417-0.734 0.223-1.463 0.209-2.185-0.044v0c-0.981-0.342-1.744-0.955-2.29-1.836-0.537-0.886-0.827-1.925-0.869-3.118-0.042-1.193 0.156-2.418 0.595-3.675v0c0.591-1.691 1.399-2.834 2.425-3.429 1.024-0.588 2.114-0.68 3.27-0.276v0c0.811 0.283 1.415 0.656 1.811 1.119 0.394 0.469 0.495 0.977 0.304 1.524v0c-0.134 0.384-0.323 0.653-0.568 0.807-0.247 0.161-0.543 0.181-0.889 0.06v0c-0.226-0.079-0.466-0.201-0.718-0.367v0c-0.422-0.225-0.718-0.367-0.888-0.426v0c-0.49-0.171-0.951-0.124-1.383 0.141-0.438 0.263-0.806 0.823-1.104 1.678v0c-0.406 1.163-0.485 2.176-0.236 3.039 0.247 0.869 0.785 1.449 1.615 1.738v0c0.641 0.224 1.264 0.148 1.868-0.226 0.599-0.383 1.125-1.162 1.578-2.337v0c0.118-0.297 0.261-0.484 0.428-0.56 0.163-0.084 0.39-0.076 0.679 0.025v0c0.899 0.314 1.211 0.885 0.936 1.713v0c-0.364 1.143-0.534 2.134-0.51 2.976 0.03 0.843 0.207 1.508 0.531 1.994 0.328 0.495 0.743 0.831 1.246 1.007v0c0.849 0.296 1.625 0.123 2.33-0.52 0.704-0.643 1.357-1.826 1.958-3.549v0c0.395-1.132 0.68-2.372 0.856-3.722 0.177-1.356 0.231-2.551 0.161-3.583z" fill="#10c380" data-fill-palette-color="primary"></path><path d="M17.564 58.642C17.558 58.412 17.579 58.232 17.628 58.101V58.101C17.708 57.889 17.848 57.76 18.05 57.715 18.244 57.674 18.465 57.7 18.714 57.793V57.793C19.107 57.94 19.409 58.16 19.62 58.452 19.821 58.748 19.948 59.169 20 59.715V59.715C20.078 60.626 19.995 61.74 19.751 63.057 19.504 64.379 19.156 65.639 18.707 66.837V66.837C18.086 68.496 17.376 69.812 16.577 70.786 15.785 71.762 14.958 72.402 14.098 72.705 13.231 73.006 12.383 73.001 11.553 72.691V72.691C10.425 72.268 9.599 71.539 9.077 70.504 8.552 69.475 8.381 68.184 8.565 66.631V66.631C8.048 67.327 7.429 67.774 6.707 67.973 5.983 68.178 5.272 68.15 4.573 67.888V67.888C3.625 67.533 2.899 66.919 2.393 66.047 1.888 65.175 1.629 64.157 1.617 62.994 1.603 61.836 1.823 60.652 2.276 59.442V59.442C2.888 57.809 3.697 56.714 4.701 56.159 5.712 55.606 6.779 55.54 7.901 55.96V55.96C8.674 56.25 9.247 56.628 9.62 57.095 9.995 57.556 10.083 58.051 9.885 58.581V58.581C9.747 58.949 9.558 59.206 9.319 59.351 9.078 59.502 8.791 59.516 8.461 59.392V59.392C8.236 59.308 8.005 59.185 7.766 59.025V59.025C7.356 58.793 7.072 58.647 6.916 58.589V58.589C6.442 58.411 5.989 58.444 5.556 58.687 5.13 58.933 4.762 59.471 4.451 60.3V60.3C4.033 61.416 3.934 62.4 4.156 63.251 4.377 64.102 4.887 64.677 5.686 64.977V64.977C6.309 65.21 6.916 65.146 7.507 64.784 8.096 64.429 8.625 63.689 9.097 62.564V62.564C9.219 62.275 9.362 62.094 9.524 62.02 9.687 61.946 9.906 61.96 10.18 62.063V62.063C11.047 62.388 11.339 62.948 11.054 63.745V63.745C10.676 64.848 10.49 65.81 10.496 66.63 10.502 67.45 10.659 68.102 10.968 68.588 11.273 69.065 11.672 69.396 12.164 69.58V69.58C12.975 69.884 13.732 69.734 14.435 69.13 15.134 68.517 15.793 67.384 16.412 65.731V65.731C16.823 64.634 17.129 63.429 17.329 62.117 17.529 60.805 17.607 59.647 17.564 58.642ZM28.574 48.92C28.23 49.318 27.898 49.524 27.578 49.538 27.254 49.557 26.847 49.355 26.359 48.932V48.932C26.026 48.645 25.656 48.268 25.249 47.802 24.833 47.337 24.221 46.614 23.413 45.634V45.634C23.304 45.505 22.86 44.971 22.078 44.031 21.298 43.101 20.456 42.145 19.553 41.163V41.163C18.803 40.32 18.213 39.714 17.785 39.344V39.344C17.306 38.93 16.915 38.899 16.61 39.252V39.252C16.379 39.519 16.233 39.974 16.171 40.616 16.109 41.257 16.187 42.073 16.406 43.063V43.063C16.486 43.388 16.448 43.641 16.291 43.822V43.822C16.16 43.973 15.974 44.041 15.732 44.026 15.495 44.015 15.286 43.931 15.105 43.774V43.774C14.923 43.617 14.778 43.434 14.668 43.225 14.554 43.021 14.455 42.733 14.371 42.361V42.361C14.109 41.228 14.061 40.174 14.226 39.199 14.391 38.224 14.776 37.386 15.382 36.686V36.686C15.887 36.101 16.445 35.817 17.055 35.834 17.67 35.856 18.323 36.165 19.014 36.761V36.761C19.633 37.297 20.454 38.155 21.474 39.337V39.337C20.359 37.44 19.748 35.733 19.643 34.215 19.541 32.693 19.968 31.38 20.921 30.276V30.276C21.675 29.405 22.49 28.961 23.367 28.944 24.24 28.932 25.089 29.284 25.915 29.998V29.998C26.384 30.403 26.894 30.963 27.447 31.678V31.678L31.169 36.599C31.607 37.162 32.017 37.609 32.4 37.94V37.94C32.849 38.327 33.273 38.514 33.673 38.499 34.073 38.484 34.435 38.29 34.757 37.917V37.917C35.062 37.564 35.242 37.122 35.298 36.589 35.358 36.051 35.314 35.317 35.166 34.389V34.389C35.124 34.132 35.172 33.923 35.311 33.762V33.762C35.429 33.626 35.588 33.574 35.789 33.607 35.985 33.635 36.193 33.745 36.415 33.936V33.936C36.833 34.298 37.076 34.684 37.144 35.095V35.095C37.335 36.228 37.349 37.2 37.186 38.009 37.032 38.819 36.696 39.523 36.178 40.123V40.123C35.399 41.024 34.519 41.497 33.54 41.54 32.557 41.588 31.614 41.222 30.712 40.442V40.442C30.36 40.138 30.003 39.776 29.642 39.359 29.281 38.941 28.84 38.388 28.317 37.699V37.699L25.955 34.535C25.877 34.432 25.739 34.251 25.54 33.991 25.341 33.723 25.146 33.479 24.956 33.262 24.76 33.04 24.557 32.838 24.345 32.655V32.655C24.008 32.363 23.657 32.223 23.295 32.235 22.928 32.253 22.592 32.438 22.287 32.79V32.79C21.734 33.43 21.523 34.362 21.655 35.584 21.782 36.812 22.366 38.351 23.407 40.202 24.458 42.052 26.032 44.152 28.129 46.502V46.502C28.603 47.043 28.883 47.479 28.968 47.808 29.063 48.136 28.932 48.507 28.574 48.92ZM53.341 27.279C51.888 28.105 50.472 28.558 49.092 28.638 47.712 28.717 46.458 28.431 45.328 27.778 44.199 27.126 43.267 26.154 42.533 24.863V24.863C41.51 23.062 40.941 21.275 40.829 19.5 40.713 17.72 41.02 16.117 41.749 14.691 42.475 13.274 43.548 12.163 44.966 11.356V11.356C46.286 10.606 47.481 10.375 48.549 10.664 49.617 10.953 50.467 11.653 51.099 12.765V12.765C51.524 13.512 51.734 14.185 51.731 14.785 51.727 15.384 51.479 15.824 50.987 16.104V16.104C50.645 16.298 50.33 16.37 50.041 16.32 49.755 16.275 49.525 16.1 49.351 15.793V15.793C49.288 15.683 49.199 15.466 49.083 15.141V15.141C48.951 14.733 48.822 14.419 48.697 14.199V14.199C48.065 13.088 47.156 12.869 45.969 13.544V13.544C45.164 14.002 44.544 14.703 44.108 15.648 43.673 16.593 43.519 17.703 43.646 18.979 43.774 20.254 44.238 21.596 45.038 23.002V23.002C45.871 24.467 46.925 25.365 48.201 25.697 49.472 26.032 50.906 25.745 52.504 24.836V24.836C53.303 24.382 54.052 23.826 54.75 23.168 55.446 22.505 56.17 21.683 56.923 20.704V20.704C57.065 20.523 57.197 20.398 57.319 20.329V20.329C57.516 20.217 57.706 20.209 57.89 20.303 58.065 20.395 58.219 20.557 58.35 20.789V20.789C58.775 21.536 58.685 22.314 58.081 23.125V23.125C57.427 23.995 56.684 24.785 55.854 25.494 55.024 26.204 54.187 26.799 53.341 27.279ZM86.318 13.216C86.503 13.187 86.661 13.25 86.793 13.404 86.918 13.553 87.003 13.772 87.049 14.061V14.061C87.136 14.607 87.073 15.059 86.86 15.416V15.416C85.753 17.318 84.423 18.393 82.871 18.639V18.639C81.523 18.853 80.364 18.501 79.396 17.583 78.428 16.671 77.79 15.245 77.482 13.305V13.305C77.407 12.831 77.351 12.355 77.316 11.875V11.875C76.427 12.184 75.448 12.468 74.376 12.726V12.726C73.662 12.9 73.174 13.015 72.913 13.07V13.07C72.862 14.528 72.749 16.322 72.575 18.454V18.454C72.478 19.71 72.018 20.404 71.196 20.534V20.534C70.308 20.675 69.8 20.341 69.671 19.532V19.532C69.643 19.355 69.639 19.099 69.661 18.765V18.765C69.826 16.79 69.945 15.122 70.019 13.762V13.762L69.019 13.961C68.565 14.033 68.22 14.007 67.985 13.883 67.749 13.758 67.603 13.515 67.545 13.153V13.153C67.472 12.693 67.553 12.333 67.789 12.073 68.018 11.821 68.436 11.63 69.043 11.5V11.5L70.132 11.286C70.183 9.275 70.127 7.753 69.963 6.721V6.721C69.859 6.07 69.693 5.641 69.465 5.434 69.231 5.236 68.956 5.161 68.641 5.211V5.211C67.667 5.366 66.697 6.349 65.731 8.162V8.162C65.591 8.427 65.409 8.577 65.186 8.612V8.612C64.988 8.644 64.806 8.582 64.64 8.426 64.473 8.264 64.367 8.045 64.323 7.768V7.768C64.255 7.341 64.357 6.856 64.628 6.314V6.314C65.105 5.368 65.764 4.549 66.605 3.856 67.452 3.161 68.353 2.738 69.306 2.587V2.587C70.207 2.444 70.953 2.639 71.544 3.172 72.135 3.712 72.535 4.637 72.743 5.946V5.946C72.925 7.097 73.009 8.685 72.994 10.71V10.71L75.009 10.279C75.877 10.101 76.616 9.912 77.225 9.714V9.714C77.233 8.149 77.387 6.658 77.688 5.241 77.99 3.831 78.456 2.648 79.087 1.691 79.723 0.734 80.512 0.18 81.453 0.031V0.031C82.15-0.08 82.743 0.109 83.232 0.598 83.72 1.08 84.034 1.765 84.175 2.653V2.653C84.722 6.093 83.345 8.759 80.045 10.652V10.652C80.093 11.211 80.165 11.79 80.26 12.388V12.388C80.492 13.849 80.837 14.856 81.296 15.41 81.747 15.959 82.302 16.181 82.959 16.076V16.076C83.525 15.986 84.021 15.756 84.448 15.385 84.874 15.014 85.326 14.419 85.803 13.602V13.602C85.943 13.377 86.115 13.249 86.318 13.216ZM81.633 1.863C81.33 1.911 81.052 2.239 80.797 2.846 80.551 3.458 80.349 4.266 80.191 5.268 80.041 6.277 79.964 7.364 79.961 8.532V8.532C80.999 7.895 81.715 7.113 82.107 6.188 82.505 5.255 82.598 4.121 82.386 2.785V2.785C82.336 2.47 82.24 2.229 82.099 2.062 81.959 1.902 81.804 1.836 81.633 1.863ZM101.046 19.274C100.092 19.086 99.279 18.682 98.607 18.061 97.935 17.44 97.468 16.642 97.205 15.667 96.935 14.691 96.92 13.595 97.16 12.38V12.38C97.573 10.282 98.402 8.429 99.649 6.822 100.895 5.214 102.501 4.04 104.465 3.301 106.429 2.567 108.639 2.442 111.096 2.926V2.926C111.73 3.051 112.4 3.23 113.108 3.465 113.814 3.705 114.441 3.982 114.991 4.294V4.294C115.361 4.482 115.503 4.795 115.417 5.233V5.233C115.346 5.592 115.143 5.902 114.806 6.161 114.476 6.429 114.13 6.527 113.771 6.456V6.456C113.666 6.436 113.586 6.413 113.53 6.388V6.388C112.843 6.083 112.253 5.842 111.759 5.663 111.264 5.484 110.736 5.339 110.174 5.229V5.229C108.423 4.884 106.85 5.015 105.454 5.623 104.058 6.231 102.919 7.171 102.038 8.443 101.156 9.715 100.556 11.158 100.239 12.772V12.772C100.008 13.942 100.061 14.896 100.398 15.634 100.736 16.365 101.277 16.805 102.022 16.951V16.951C102.859 17.116 103.662 16.914 104.432 16.347 105.207 15.786 106.009 14.784 106.837 13.338 107.663 11.899 108.592 9.906 109.622 7.36V7.36C109.783 6.991 110.001 6.763 110.277 6.674 110.552 6.586 110.895 6.582 111.307 6.663V6.663C112.287 6.856 112.715 7.27 112.59 7.904V7.904C112.569 8.008 112.52 8.141 112.44 8.302V8.302C111.825 9.565 111.208 10.978 110.588 12.539 109.975 14.102 109.585 15.304 109.419 16.147V16.147C109.273 16.892 109.277 17.457 109.432 17.84 109.582 18.216 109.886 18.449 110.343 18.539V18.539C110.788 18.626 111.238 18.562 111.695 18.347 112.151 18.131 112.754 17.724 113.503 17.125V17.125C113.705 16.961 113.911 16.899 114.12 16.94V16.94C114.296 16.975 114.42 17.088 114.491 17.278 114.564 17.462 114.571 17.698 114.515 17.985V17.985C114.408 18.528 114.193 18.93 113.87 19.192V19.192C113.03 19.875 112.244 20.365 111.514 20.663 110.782 20.967 109.945 21.026 109.004 20.841V20.841C108.044 20.652 107.322 20.218 106.838 19.539 106.352 18.866 106.136 18.002 106.187 16.947V16.947C104.746 18.889 103.032 19.665 101.046 19.274ZM124.486 27.157C124.041 26.876 123.788 26.578 123.728 26.263 123.661 25.945 123.801 25.513 124.146 24.967V24.967C124.382 24.596 124.7 24.175 125.101 23.704 125.5 23.223 126.124 22.511 126.974 21.568V21.568C127.086 21.441 127.549 20.922 128.363 20.011 129.167 19.102 129.989 18.128 130.828 17.091V17.091C131.55 16.224 132.063 15.552 132.366 15.074V15.074C132.705 14.539 132.677 14.147 132.283 13.898V13.898C131.985 13.709 131.514 13.631 130.87 13.664 130.226 13.698 129.431 13.896 128.484 14.258V14.258C128.174 14.385 127.919 14.384 127.716 14.256V14.256C127.547 14.149 127.453 13.975 127.432 13.733 127.408 13.497 127.46 13.278 127.589 13.076V13.076C127.717 12.873 127.877 12.702 128.067 12.563 128.253 12.42 128.523 12.28 128.878 12.142V12.142C129.96 11.716 130.995 11.513 131.984 11.532 132.973 11.552 133.859 11.809 134.641 12.305V12.305C135.293 12.718 135.656 13.228 135.729 13.834 135.799 14.446 135.59 15.137 135.101 15.908V15.908C134.663 16.6 133.935 17.538 132.917 18.722V18.722C134.628 17.339 136.227 16.483 137.712 16.155 139.203 15.83 140.565 16.058 141.797 16.838V16.838C142.77 17.455 143.329 18.196 143.475 19.061 143.615 19.922 143.393 20.814 142.809 21.737V21.737C142.477 22.26 141.998 22.848 141.372 23.5V23.5L137.055 27.907C136.562 28.423 136.181 28.894 135.91 29.322V29.322C135.593 29.823 135.471 30.27 135.545 30.663 135.618 31.057 135.864 31.386 136.28 31.65V31.65C136.674 31.899 137.138 32.012 137.673 31.988 138.214 31.968 138.933 31.817 139.83 31.534V31.534C140.078 31.454 140.291 31.471 140.471 31.585V31.585C140.623 31.681 140.698 31.831 140.695 32.035 140.696 32.232 140.618 32.455 140.461 32.702V32.702C140.166 33.169 139.82 33.466 139.424 33.594V33.594C138.331 33.95 137.372 34.107 136.547 34.066 135.724 34.033 134.978 33.805 134.308 33.38V33.38C133.301 32.742 132.704 31.942 132.517 30.981 132.325 30.015 132.548 29.029 133.186 28.022V28.022C133.435 27.628 133.74 27.222 134.1 26.803 134.459 26.385 134.942 25.866 135.546 25.248V25.248L138.327 22.445C138.417 22.353 138.576 22.189 138.803 21.955 139.04 21.718 139.252 21.49 139.439 21.269 139.629 21.043 139.799 20.812 139.949 20.576V20.576C140.188 20.199 140.275 19.832 140.209 19.475 140.138 19.114 139.905 18.809 139.511 18.56V18.56C138.797 18.107 137.845 18.036 136.655 18.347 135.459 18.653 134.023 19.458 132.346 20.761 130.671 22.073 128.826 23.939 126.812 26.36V26.36C126.346 26.909 125.957 27.25 125.644 27.383 125.333 27.525 124.947 27.45 124.486 27.157ZM168.341 44.368C168.539 44.761 168.619 45.109 168.582 45.413 168.545 45.717 168.415 45.954 168.193 46.123V46.123C167.827 46.4 167.478 46.498 167.147 46.414 166.821 46.336 166.507 46.06 166.206 45.586V45.586C165.515 44.522 164.972 43.697 164.577 43.11 164.173 42.522 163.628 41.766 162.942 40.84V40.84C160.57 41.988 158.208 43.178 155.858 44.41V44.41C155.006 44.864 154.029 45.405 152.926 46.033 151.822 46.661 150.945 47.185 150.293 47.604V47.604C149.954 47.829 149.604 47.885 149.243 47.774 148.879 47.657 148.566 47.427 148.304 47.082V47.082C148.023 46.711 147.895 46.356 147.923 46.017 147.95 45.679 148.11 45.399 148.401 45.177V45.177C148.667 44.976 149.145 44.68 149.835 44.29 150.52 43.904 151.245 43.509 152.008 43.105V43.105C152.785 42.708 153.452 42.352 154.008 42.039V42.039C154.949 41.517 155.9 41.013 156.861 40.526 157.82 40.049 158.734 39.607 159.602 39.198V39.198C159.796 39.101 160.018 38.991 160.268 38.869 160.522 38.752 160.804 38.617 161.115 38.464V38.464C160.249 37.39 159.505 36.597 158.881 36.083 158.263 35.566 157.723 35.278 157.26 35.22 156.799 35.152 156.361 35.275 155.948 35.589V35.589C155.566 35.878 155.284 36.268 155.103 36.756V36.756C155.065 36.86 155.001 36.947 154.911 37.015V37.015C154.699 37.176 154.403 37.2 154.024 37.086 153.649 36.977 153.359 36.788 153.154 36.517V36.517C153.009 36.326 152.946 36.128 152.965 35.921V35.921C152.986 35.553 153.116 35.162 153.354 34.748 153.6 34.335 153.947 33.96 154.392 33.621V33.621C155.347 32.897 156.347 32.627 157.391 32.813 158.44 32.995 159.583 33.62 160.82 34.688 162.047 35.755 163.418 37.285 164.931 39.28V39.28C165.865 40.511 166.589 41.508 167.102 42.273 167.61 43.041 168.023 43.739 168.341 44.368ZM166.63 74.967C166.782 75.14 166.881 75.292 166.926 75.424V75.424C167.001 75.638 166.975 75.827 166.848 75.991 166.726 76.146 166.539 76.267 166.287 76.355V76.355C165.89 76.492 165.518 76.516 165.169 76.425 164.825 76.326 164.459 76.083 164.071 75.696V75.696C163.429 75.044 162.782 74.134 162.13 72.964 161.475 71.788 160.939 70.596 160.52 69.388V69.388C159.939 67.715 159.646 66.248 159.639 64.989 159.626 63.731 159.854 62.711 160.323 61.929 160.798 61.144 161.454 60.606 162.291 60.316V60.316C163.429 59.921 164.53 59.955 165.593 60.418 166.654 60.875 167.609 61.76 168.459 63.072V63.072C168.413 62.207 168.604 61.468 169.032 60.854 169.459 60.234 170.024 59.802 170.729 59.557V59.557C171.686 59.226 172.637 59.234 173.582 59.583 174.528 59.932 175.377 60.55 176.129 61.439 176.879 62.32 177.465 63.372 177.888 64.592V64.592C178.46 66.241 178.536 67.6 178.117 68.668 177.692 69.739 176.913 70.471 175.781 70.864V70.864C175.001 71.134 174.318 71.209 173.733 71.087 173.15 70.972 172.766 70.647 172.581 70.112V70.112C172.452 69.741 172.434 69.423 172.525 69.159 172.615 68.888 172.826 68.695 173.16 68.579V68.579C173.386 68.501 173.642 68.447 173.928 68.418V68.418C174.393 68.335 174.704 68.266 174.861 68.211V68.211C175.339 68.046 175.667 67.731 175.845 67.268 176.016 66.806 175.957 66.157 175.667 65.32V65.32C175.276 64.194 174.724 63.374 174.01 62.86 173.296 62.347 172.537 62.229 171.731 62.509V62.509C171.102 62.727 170.676 63.164 170.452 63.819 170.226 64.469 170.29 65.377 170.646 66.543V66.543C170.736 66.843 170.742 67.074 170.663 67.235 170.585 67.396 170.408 67.525 170.131 67.621V67.621C169.256 67.924 168.674 67.678 168.385 66.883V66.883C167.971 65.793 167.501 64.934 166.973 64.307 166.445 63.679 165.908 63.277 165.36 63.1 164.821 62.928 164.303 62.927 163.806 63.1V63.1C162.988 63.383 162.501 63.982 162.345 64.896 162.199 65.814 162.414 67.107 162.992 68.774V68.774C163.376 69.882 163.91 71.004 164.593 72.142 165.277 73.279 165.956 74.221 166.63 74.967Z" fill="#10c380" data-fill-palette-color="primary"></path><path d="M1.395 94.174c0-3.901 3.162-7.064 7.064-7.064 3.901 0 7.064 3.162 7.063 7.064 0 3.901-3.162 7.064-7.063 7.063-3.901 0-7.064-3.162-7.064-7.063zM163.231 94.174c0-3.901 3.162-7.064 7.063-7.064 3.901 0 7.064 3.162 7.064 7.064 0 3.901-3.162 7.064-7.064 7.063-3.901 0-7.064-3.162-7.063-7.063z" fill="#10c380" data-fill-palette-color="primary"></path></svg></g></svg></g></svg></g><g></g></svg></g></svg></g></svg></g><defs></defs></svg><rect width="320" height="360" fill="none" stroke="none" visibility="hidden"></rect></g></svg></g></svg>